<?xml version="1.0" encoding="UTF-8" standalone="no"?>
<svg width="534px" height="170px" viewBox="0 0 534 170" version="1.1" xmlns="http://www.w3.org/2000/svg" xmlns:xlink="http://www.w3.org/1999/xlink" xmlns:sketch="http://www.bohemiancoding.com/sketch/ns">
    <!-- Generator: Sketch 3.1.1 (8761) - http://www.bohemiancoding.com/sketch -->
    <title>flow-logo</title>
    <desc>Created with Sketch.</desc>
    <defs></defs>
    <g id="Page-1" stroke="none" stroke-width="1" fill="none" fill-rule="evenodd" sketch:type="MSPage">
        <g id="flow-logo" sketch:type="MSLayerGroup">
            <path d="M126.9,117.1 C124.4,117.8 122.4,118.1 119.7,118.1 C98.1,118.1 66.4,42.7 66.4,17.6 C66.4,8.4 68.6,5.2 71.7,2.6 C45.3,5.7 13.6,15.4 3.5,27.7 C1.3,30.8 0,35.7 0,41.8 C0,81 41.9,170 71.4,170 C85,170 108,147.5 126.9,117.1 L126.9,117.1 L126.9,117.1 Z" id="Shape" fill="#FF8700" sketch:type="MSShapeGroup"></path>
            <path d="M113.2,0 C140.5,0 167.8,4.4 167.8,19.8 C167.8,51.1 148,89 137.9,89 C119.8,89 97.4,38.8 97.4,13.7 C97.3,2.2 101.7,0 113.2,0 L113.2,0 Z" id="Shape" fill="#FF8700" sketch:type="MSShapeGroup"></path>
            <path d="M225.8,56.8 L225.8,99.5 L264.4,99.5 L264.4,112.5 L225.8,112.5 L225.8,168.7 L210.3,168.7 L210.3,43.7 L268.9,43.7 L268.9,56.7 L225.8,56.7 L225.8,56.8 Z" id="Shape" fill="#000000" sketch:type="MSShapeGroup"></path>
            <path d="M290.2,168.7 L290.2,43.7 L305.7,43.7 L305.7,155.1 L345.5,155.1 L345.5,168.7 L290.2,168.7 L290.2,168.7 Z" id="Shape" fill="#000000" sketch:type="MSShapeGroup"></path>
            <path d="M391.8,169.9 C362.4,169.9 354.5,148.5 354.5,104.7 C354.5,62.7 362.3,42.4 391.8,42.4 C421.2,42.4 429.1,62.8 429.1,104.7 C429.1,148.5 421.2,169.9 391.8,169.9 L391.8,169.9 Z M391.8,55.6 C375.7,55.6 370.4,66.5 370.4,105.8 C370.4,144.2 375.7,157 391.8,157 C407.8,157 413.2,144.1 413.2,105.8 C413.3,66.5 407.9,55.6 391.8,55.6 L391.8,55.6 Z" id="Shape" fill="#000000" sketch:type="MSShapeGroup"></path>
            <path d="M527.4,168.7 L503.1,168.7 L491.2,114.4 L478.2,168.7 L455,168.7 L448.9,43.7 L462.6,43.7 L468,158.9 L484,96.4 L498.6,96.4 L514.8,158.9 L520.4,43.7 L533.4,43.7 L527.4,168.7 L527.4,168.7 Z" id="Shape" fill="#000000" sketch:type="MSShapeGroup"></path>
        </g>
    </g>
</svg>