<?xml version="1.0" encoding="utf-8"?>
<!-- Generator: Adobe Illustrator 17.1.0, SVG Export Plug-In . SVG Version: 6.00 Build 0)  -->
<!DOCTYPE svg PUBLIC "-//W3C//DTD SVG 1.1//EN" "http://www.w3.org/Graphics/SVG/1.1/DTD/svg11.dtd">
<svg version="1.1" id="Ebene_1" xmlns="http://www.w3.org/2000/svg" xmlns:xlink="http://www.w3.org/1999/xlink" x="0px" y="0px"
	 viewBox="0 0 1000 1000" enable-background="new 0 0 1000 1000" xml:space="preserve">
<path fill="#FF8700" d="M207.4,552.5c-4.1,1.2-7.4,1.6-11.7,1.6c-35.3,0-87.1-123.2-87.1-164.2c0-15.1,3.6-20.2,8.6-24.5
	c-43.2,5-95,20.9-111.5,41c-3.6,5-5.8,13-5.8,23c0,64,68.4,209.4,116.6,209.4C138.9,638.9,176.5,602.2,207.4,552.5L207.4,552.5z"/>
<path fill="#FF8700" d="M184.9,361.1c44.6,0,89.2,7.2,89.2,32.4c0,51.1-32.4,113-48.9,113c-29.5,0-66.2-82-66.2-123
	C159,364.7,166.2,361.1,184.9,361.1z"/>
<path d="M368.9,453.9v69.7h63v21.3h-63v91.9h-25.4V432.6h95.7v21.3C439.2,453.9,368.9,453.9,368.9,453.9z"/>
<path d="M474.2,636.8V432.6h25.4v182h65v22.2H474.2z"/>
<path d="M640.2,638.8c-48.1,0-61-35-61-106.5c0-68.6,12.8-101.8,61-101.8c48.1,0,61,33.3,61,101.8
	C701.2,603.8,688.3,638.8,640.2,638.8z M640.2,451.9c-26.3,0-35,17.8-35,82c0,62.7,8.7,83.7,35,83.7c26.2,0,35-21,35-83.7
	C675.3,469.7,666.5,451.9,640.2,451.9z"/>
<path d="M861.7,636.8H822l-19.5-88.7l-21.3,88.7h-37.9l-9.9-204.2h22.4l8.8,188.2l26.2-102.1h23.9l26.5,102.1l9.1-188.2h21.3
	L861.7,636.8z"/>
</svg>
