<?xml version="1.0" encoding="UTF-8" standalone="no"?>
<svg width="538px" height="170px" viewBox="0 0 538 170" version="1.1" xmlns="http://www.w3.org/2000/svg" xmlns:xlink="http://www.w3.org/1999/xlink" xmlns:sketch="http://www.bohemiancoding.com/sketch/ns">
    <!-- Generator: Sketch 3.1.1 (8761) - http://www.bohemiancoding.com/sketch -->
    <title>neos-logo</title>
    <desc>Created with Sketch.</desc>
    <defs></defs>
    <g id="Page-1" stroke="none" stroke-width="1" fill="none" fill-rule="evenodd" sketch:type="MSPage">
        <g id="neos-logo" sketch:type="MSLayerGroup">
            <path d="M126.9,117.1 C124.4,117.8 122.4,118.1 119.7,118.1 C98.1,118.1 66.4,42.7 66.4,17.6 C66.4,8.4 68.6,5.3 71.7,2.6 C45.3,5.7 13.6,15.4 3.5,27.7 C1.3,30.8 0,35.7 0,41.8 C0,81 41.9,170 71.4,170 C85,170 108,147.5 126.9,117.1 L126.9,117.1 L126.9,117.1 Z" id="Shape" fill="#FF8700" sketch:type="MSShapeGroup"></path>
            <path d="M113.2,0 C140.5,0 167.8,4.4 167.8,19.8 C167.8,51.1 148,89 137.9,89 C119.8,89 97.4,38.8 97.4,13.7 C97.3,2.2 101.7,0 113.2,0 L113.2,0 Z" id="Shape" fill="#FF8700" sketch:type="MSShapeGroup"></path>
            <path d="M252,168.7 L224.7,57 L224.7,168.8 L210.3,168.8 L210.3,43.8 L235.6,43.8 L263.1,155.6 L263.1,43.8 L277.5,43.8 L277.5,168.8 L252,168.7 L252,168.7 Z" id="Shape" fill="#000000" sketch:type="MSShapeGroup"></path>
            <path d="M306.1,168.7 L306.1,43.7 L364.7,43.7 L364.7,56.7 L321.7,56.7 L321.7,97.6 L360.3,97.6 L360.3,110.6 L321.7,110.6 L321.7,155.6 L364.7,155.6 L364.7,168.6 L306.1,168.6 L306.1,168.7 L306.1,168.7 Z" id="Shape" fill="#000000" sketch:type="MSShapeGroup"></path>
            <path d="M422.5,170 C393.1,170 385.2,148.6 385.2,104.8 C385.2,62.8 393,42.5 422.5,42.5 C451.9,42.5 459.8,62.9 459.8,104.8 C459.9,148.5 452,170 422.5,170 L422.5,170 Z M422.5,55.5 C406.5,55.5 401.1,66.4 401.1,105.7 C401.1,144.1 406.5,156.9 422.5,156.9 C438.6,156.9 443.9,144 443.9,105.7 C444,66.4 438.6,55.5 422.5,55.5 L422.5,55.5 Z" id="Shape" fill="#000000" sketch:type="MSShapeGroup"></path>
            <path d="M502.4,170 C496.7,170 487.8,168.9 481.7,167.3 L481.7,154.3 C487.3,155.7 494.6,157 504.2,157 C516.5,157 521.9,149.8 521.9,135 C521.9,117.7 517.1,112.7 507.5,110.7 C487.7,106.6 480.2,98 480.2,77 C480.2,51.5 494.8,42.5 515.4,42.5 C521.3,42.5 529.2,43.7 534.3,45.2 L534.3,58.2 C528.2,56.8 519.9,55.5 513.6,55.5 C504.7,55.5 496.1,60.9 496.1,75 C496.1,89.4 498.6,93.5 509.9,95.9 C527,99.4 537.9,107 537.9,133.2 C537.7,162.8 523.6,170 502.4,170 L502.4,170 Z" id="Shape" fill="#000000" sketch:type="MSShapeGroup"></path>
        </g>
    </g>
</svg>