<?xml version="1.0" encoding="utf-8"?>
<!-- Generator: Adobe Illustrator 17.1.0, SVG Export Plug-In . SVG Version: 6.00 Build 0)  -->
<!DOCTYPE svg PUBLIC "-//W3C//DTD SVG 1.1//EN" "http://www.w3.org/Graphics/SVG/1.1/DTD/svg11.dtd">
<svg version="1.1" id="Ebene_1" xmlns="http://www.w3.org/2000/svg" xmlns:xlink="http://www.w3.org/1999/xlink" x="0px" y="0px"
	 viewBox="0 0 1000 1000" enable-background="new 0 0 1000 1000" xml:space="preserve">
<path fill="#FF8700" d="M207.4,552.5c-4.1,1.2-7.4,1.6-11.7,1.6c-35.3,0-87.1-123.2-87.1-164.2c0-15.1,3.6-20.1,8.6-24.5
	c-43.2,5-95,20.9-111.5,41c-3.6,5-5.8,13-5.8,23c0,64,68.4,209.4,116.6,209.4C138.9,638.9,176.5,602.2,207.4,552.5L207.4,552.5z"/>
<path fill="#FF8700" d="M184.9,361.1c44.6,0,89.2,7.2,89.2,32.4c0,51.1-32.4,113-48.9,113c-29.5,0-66.2-82-66.2-123
	C159,364.7,166.2,361.1,184.9,361.1z"/>
<path d="M411.8,636.8l-44.6-182.6v182.6h-23.6V432.6H385l44.9,182.6V432.6h23.6v204.2H411.8z"/>
<path d="M500.2,636.8V432.6h95.7v21.3h-70.3v66.8h63V542h-63v73.5h70.3v21.3L500.2,636.8L500.2,636.8z"/>
<path d="M690.4,638.9c-48.1,0-61-35-61-106.5c0-68.6,12.8-101.8,61-101.8c48.1,0,61,33.3,61,101.8
	C751.4,603.8,738.6,638.9,690.4,638.9z M690.4,451.8c-26.2,0-35,17.8-35,82c0,62.7,8.8,83.7,35,83.7c26.3,0,35-21,35-83.7
	C725.5,469.6,716.7,451.8,690.4,451.8z"/>
<path d="M820.9,638.9c-9.3,0-23.9-1.8-33.9-4.4v-21.3c9.1,2.3,21,4.4,36.8,4.4c20.1,0,28.9-11.7,28.9-35.9
	c0-28.3-7.9-36.5-23.6-39.7c-32.4-6.7-44.6-20.7-44.6-55.1c0-41.7,23.9-56.3,57.5-56.3c9.6,0,22.5,2,30.9,4.4v21.3
	c-9.9-2.3-23.6-4.4-33.8-4.4c-14.6,0-28.6,8.8-28.6,31.8c0,23.6,4.1,30.3,22.5,34.1c28,5.8,45.8,18.1,45.8,61
	C878.6,627.2,855.6,638.9,820.9,638.9z"/>
</svg>
