<?xml version="1.0" encoding="utf-8"?>
<!-- Generator: Adobe Illustrator 17.1.0, SVG Export Plug-In . SVG Version: 6.00 Build 0)  -->
<!DOCTYPE svg PUBLIC "-//W3C//DTD SVG 1.1//EN" "http://www.w3.org/Graphics/SVG/1.1/DTD/svg11.dtd">
<svg version="1.1" id="Ebene_1" xmlns="http://www.w3.org/2000/svg" xmlns:xlink="http://www.w3.org/1999/xlink" x="0px" y="0px"
	 viewBox="0 0 1000 1000" enable-background="new 0 0 1000 1000" xml:space="preserve">
<path d="M400.1,454.7v182.1h-25.4V454.7h-44.9v-22.2H445v22.2C445,454.7,400.1,454.7,400.1,454.7z M536.3,542v94.8H510V542
	l-52.2-109.4h28l38.5,82.6l38.5-82.6h26.6L536.3,542z M668.2,559.8h-24.5v77h-25.4V432.6c0,0,25.1-2,49.3-2
	c44.4,0,57.2,27.4,57.2,63.3C724.8,538.2,709.6,559.8,668.2,559.8z M671.1,451.5c-16.1,0-27.4,1.7-27.4,1.7v85.2h27.4
	c16.3,0,27.7-10.8,27.7-42.6C698.8,466.7,691.8,451.5,671.1,451.5z M816.4,638.9c-48.2,0-61-35-61-106.5c0-68.6,12.8-101.9,61-101.9
	s61,33.3,61,101.9C877.4,603.9,864.6,638.9,816.4,638.9z M816.4,451.8c-26.2,0-35,17.8-35,82c0,62.8,8.8,83.8,35,83.8
	c26.3,0,35-21,35-83.8C851.5,469.6,842.7,451.8,816.4,451.8z M950.7,638.9c-14.3,0-35.6-4.4-38.2-5v-21.3c7,1.5,25.1,4.5,37.9,4.5
	c14.9,0,24.5-12.7,24.5-35.1c0-26.6-4.4-40.6-25.1-40.6h-23.9v-21.3h21c23.6,0,24.8-24.2,24.8-35.9c0-23.1-7.3-32.4-21.9-32.4
	c-12.8,0-27.5,3.2-35.9,5v-21.3c3.2-0.6,20.4-5,35.3-5c30.1,0,47.3,12.8,47.3,56.3c0,19.8-7,37.4-22.5,42.9
	c17.8,1.2,26,20.7,26,49.3C1000,622.5,983.1,638.9,950.7,638.9z"/>
<path fill="#FF8700" d="M207.5,552.5c-4.1,1.2-7.4,1.6-11.7,1.6c-35.3,0-87.1-123.3-87.1-164.3c0-15.1,3.6-20.1,8.6-24.5
	c-43.2,5-95,20.9-111.5,41c-3.6,5-5.8,13-5.8,23c0,64,68.4,209.4,116.6,209.4C138.9,638.9,176.5,602.2,207.5,552.5L207.5,552.5z"/>
<path fill="#FF8700" d="M184.9,361.1c44.6,0,89.2,7.2,89.2,32.4c0,51.1-32.4,113-48.9,113c-29.5,0-66.2-82-66.2-123.1
	C159,364.7,166.2,361.1,184.9,361.1z"/>
</svg>
