<?xml version="1.0" encoding="utf-8"?>
<!-- Generator: Adobe Illustrator 17.1.0, SVG Export Plug-In . SVG Version: 6.00 Build 0)  -->
<!DOCTYPE svg PUBLIC "-//W3C//DTD SVG 1.1//EN" "http://www.w3.org/Graphics/SVG/1.1/DTD/svg11.dtd" [
	<!ENTITY ns_extend "http://ns.adobe.com/Extensibility/1.0/">
	<!ENTITY ns_ai "http://ns.adobe.com/AdobeIllustrator/10.0/">
	<!ENTITY ns_graphs "http://ns.adobe.com/Graphs/1.0/">
	<!ENTITY ns_vars "http://ns.adobe.com/Variables/1.0/">
	<!ENTITY ns_imrep "http://ns.adobe.com/ImageReplacement/1.0/">
	<!ENTITY ns_sfw "http://ns.adobe.com/SaveForWeb/1.0/">
	<!ENTITY ns_custom "http://ns.adobe.com/GenericCustomNamespace/1.0/">
	<!ENTITY ns_adobe_xpath "http://ns.adobe.com/XPath/1.0/">
]>
<svg version="1.1" id="Ebene_1" xmlns:x="&ns_extend;" xmlns:i="&ns_ai;" xmlns:graph="&ns_graphs;"
	 xmlns="http://www.w3.org/2000/svg" xmlns:xlink="http://www.w3.org/1999/xlink" x="0px" y="0px" width="595.3px" height="165.4px"
	 viewBox="123.3 215 595.3 165.4" enable-background="new 123.3 215 595.3 165.4" xml:space="preserve">
<metadata>
	<sfw  xmlns="&ns_sfw;">
		<slices></slices>
		<sliceSourceBounds  height="165.4" width="595.3" bottomLeftOrigin="true" x="123.3" y="215"></sliceSourceBounds>
	</sfw>
</metadata>
<path d="M361.5,270.7v108.4h-15.1V270.7h-26.7v-13.2h68.6v13.2H361.5z M442.6,322.6v56.4h-15.7v-56.4l-31.1-65.1h16.7l22.9,49.2
	l22.9-49.2h15.8L442.6,322.6z M521.1,333.2h-14.6v45.8h-15.1V257.5c0,0,14.9-1.2,29.3-1.2c26.4,0,34.1,16.3,34.1,37.7
	C554.8,320.4,545.7,333.2,521.1,333.2z M522.8,268.8c-9.6,0-16.3,1-16.3,1v50.7h16.3c9.7,0,16.5-6.4,16.5-25.4
	C539.3,277.8,535.1,268.8,522.8,268.8z M609.3,380.3c-28.7,0-36.3-20.8-36.3-63.4c0-40.8,7.6-60.7,36.3-60.7s36.3,19.8,36.3,60.7
	C645.6,359.5,638,380.3,609.3,380.3z M609.3,268.9c-15.6,0-20.8,10.6-20.8,48.8c0,37.4,5.2,49.9,20.8,49.9
	c15.7,0,20.8-12.5,20.8-49.9C630.2,279.5,624.9,268.9,609.3,268.9z M689.2,380.3c-8.5,0-21.2-2.6-22.7-3v-12.7
	c4.2,0.9,14.9,2.7,22.6,2.7c8.9,0,14.6-7.6,14.6-20.9c0-15.8-2.6-24.2-14.9-24.2h-14.2v-12.7H687c14,0,14.8-14.4,14.8-21.4
	c0-13.8-4.3-19.3-13-19.3c-7.6,0-16.4,1.9-21.4,3v-12.7c1.9-0.4,12.1-3,21-3c17.9,0,28.2,7.6,28.2,33.5c0,11.8-4.2,22.3-13.4,25.5
	c10.6,0.7,15.5,12.3,15.5,29.3C718.6,370.6,708.5,380.3,689.2,380.3z"/>
<path fill="#FF8700" d="M246.8,328.9c-2.4,0.7-4.4,1-7,1c-21,0-51.8-73.4-51.8-97.8c0-9,2.1-12,5.1-14.6
	c-25.7,3-56.6,12.4-66.4,24.4c-2.1,3-3.5,7.7-3.5,13.7c0,38.1,40.7,124.7,69.4,124.7C206,380.3,228.4,358.5,246.8,328.9L246.8,328.9
	z"/>
<path fill="#FF8700" d="M233.4,215c26.5,0,53.1,4.3,53.1,19.3c0,30.4-19.3,67.3-29.1,67.3c-17.6,0-39.4-48.8-39.4-73.3
	C218,217.1,222.2,215,233.4,215z"/>
</svg>
